<?xml version="1.0" standalone="no"?>
<!DOCTYPE svg PUBLIC "-//W3C//DTD SVG 20010904//EN"
 "http://www.w3.org/TR/2001/REC-SVG-20010904/DTD/svg10.dtd">
<svg version="1.0" xmlns="http://www.w3.org/2000/svg"
 width="1024.000000pt" height="1024.000000pt" viewBox="0 0 1024.000000 1024.000000"
 preserveAspectRatio="xMidYMid meet">

<g transform="translate(0.000000,1024.000000) scale(0.100000,-0.100000)"
fill="#fff" stroke="none">
<path d="M4184 8918 c-50 -62 -139 -178 -199 -258 -60 -80 -174 -230 -255
-335 -209 -271 -502 -659 -665 -880 -619 -838 -1022 -1522 -1315 -2237 -27
-65 -47 -118 -45 -118 3 0 64 44 137 98 73 54 155 113 182 132 48 32 49 32 42
9 -37 -130 -342 -1636 -333 -1645 4 -5 176 205 302 368 l90 117 7 -72 c3 -40
11 -178 17 -307 7 -129 14 -274 18 -323 l6 -87 346 -237 c190 -130 513 -352
716 -492 204 -140 458 -315 565 -388 107 -74 281 -193 385 -265 217 -149 937
-639 1097 -746 l106 -71 -28 63 c-74 162 -152 440 -185 656 -23 146 -31 449
-16 580 48 414 216 832 423 1051 l53 56 180 -14 c99 -7 365 -29 590 -48 226
-19 550 -46 721 -60 l312 -25 213 86 c118 48 242 98 277 112 34 14 59 29 55
33 -5 4 -100 23 -213 44 -262 47 -706 131 -1275 240 -538 104 -594 114 -1072
204 l-371 69 -64 -23 c-34 -12 -227 -80 -428 -150 -201 -70 -366 -128 -368
-130 -1 -1 39 -137 89 -301 103 -334 202 -659 284 -929 30 -99 75 -243 99
-320 25 -76 44 -141 42 -142 -9 -9 -668 936 -944 1354 -81 122 -150 222 -153
222 -4 1 -9 -7 -12 -16 -6 -20 -222 -491 -282 -618 l-39 -80 -12 65 c-96 501
-242 1231 -247 1237 -2 1 -94 -135 -206 -303 -112 -167 -205 -303 -207 -301
-1 1 3 115 11 252 8 138 17 325 21 418 l7 167 820 0 c496 0 817 4 811 9 -5 5
-288 150 -629 321 -625 314 -893 452 -930 477 -16 11 170 13 1142 13 l1161 0
5 -207 c5 -216 13 -269 59 -376 109 -256 341 -426 580 -427 179 0 373 105 477
259 104 153 141 272 148 479 l6 143 55 28 56 28 110 -80 c61 -44 201 -147 311
-227 219 -160 496 -359 845 -605 320 -225 336 -238 350 -282 23 -70 118 -261
158 -318 l40 -56 104 118 c57 65 136 157 176 205 l71 86 -67 40 c-71 42 -412
232 -677 377 -194 106 -387 214 -477 267 l-67 39 25 57 c42 94 54 171 54 359
0 195 -11 170 103 240 l58 35 -3 141 -3 142 -40 19 c-224 106 -569 95 -757
-26 -78 -49 -149 -158 -164 -250 l-7 -38 -132 0 -132 0 -7 38 c-20 131 -162
268 -326 316 -167 50 -473 61 -708 25 -141 -21 -314 -69 -415 -113 l-58 -26
-759 0 c-418 0 -760 3 -760 7 0 5 27 89 59 188 33 99 121 371 196 605 75 234
197 612 272 840 74 228 159 489 188 580 30 91 112 342 183 558 71 215 129 392
128 392 -1 0 -43 -51 -92 -112z m1586 -3296 c0 -4 -16 -31 -35 -59 -19 -29
-105 -163 -191 -300 -86 -136 -160 -252 -163 -256 -4 -4 -20 24 -35 63 l-28
70 118 188 c64 103 133 213 153 244 l36 58 73 0 c39 0 72 -3 72 -8z m295 -24
c13 -31 12 -35 -20 -78 -28 -39 -223 -344 -445 -697 -36 -57 -68 -103 -72
-103 -4 0 -21 27 -38 60 -22 44 -28 65 -21 78 5 9 69 112 142 227 73 116 180
285 238 378 l105 167 49 0 c45 0 49 -2 62 -32z"/>
<path d="M6920 8528 c-47 -28 -368 -225 -715 -438 -346 -213 -751 -460 -898
-548 l-269 -162 -124 0 c-68 0 -124 -3 -124 -7 0 -7 42 -235 73 -401 8 -40 16
-74 18 -76 6 -5 760 -406 1109 -588 157 -83 289 -154 295 -159 5 -5 13 -9 19
-9 5 0 -31 42 -80 93 -334 346 -959 1030 -986 1080 -9 17 -8 17 19 4 31 -16
232 -160 588 -422 127 -93 276 -202 332 -242 56 -41 105 -78 108 -83 10 -17
22 -11 28 13 2 12 37 114 77 227 111 317 423 1210 510 1460 43 124 85 244 94
268 8 23 14 42 13 42 -1 -1 -40 -24 -87 -52z"/>
<path d="M4263 8130 c-18 -63 -53 -196 -78 -295 -25 -99 -96 -369 -156 -600
-98 -373 -152 -575 -250 -933 -22 -81 -25 -102 -13 -98 8 3 63 37 122 75 60
38 218 137 352 221 242 149 245 151 242 183 -2 18 -23 199 -48 402 -57 470
-122 1011 -132 1095 l-7 65 -32 -115z"/>
</g>
</svg>
