<svg width="413" height="342" viewBox="0 0 413 342" fill="none" xmlns="http://www.w3.org/2000/svg">
<path d="M413 173.845C413 128.988 376.636 92.6238 331.779 92.6238V92.6238C309.351 92.6238 291.169 110.806 291.169 133.234V215.006C291.169 282.292 345.715 336.837 413 336.837V336.837V173.845Z" fill="#41B883"/>
<path d="M202.168 97.528H98.1958V237.601C98.1958 295.024 144.746 341.573 202.168 341.573V341.573V97.528Z" fill="#41B883"/>
<path d="M202.168 101.084C202.168 45.2568 156.911 0 101.084 0V0C45.2568 0 1.52588e-05 45.2568 1.52588e-05 101.084V102.528H202.168V101.084Z" fill="#41B883"/>
<path d="M201.863 216.66C201.863 148.157 257.396 92.6238 325.899 92.6238V92.6238V217.211C325.899 285.715 270.366 341.248 201.863 341.248V341.248V216.66Z" fill="#41B883"/>
<circle cx="15.8846" cy="15.8846" r="15.8846" transform="matrix(-1 0 0 1 98.1958 36.1014)" fill="white"/>
</svg>
