<svg width="413" height="342" viewBox="0 0 413 342" fill="none" xmlns="http://www.w3.org/2000/svg">
<path d="M413 173.845C413 128.988 376.636 92.6238 331.779 92.6238C309.351 92.6238 291.169 110.806 291.169 133.234V215.006C291.169 282.292 345.715 336.837 413 336.837V173.845Z" fill="#CCE825"/>
<path d="M202.168 101.084C202.168 45.2568 156.911 0 101.084 0C45.2568 0 1.52588e-05 45.2568 1.52588e-05 101.084V102.528H202.168V101.084Z" fill="#4171B8"/>
<path d="M199 197.5C200.672 139.244 248.262 92.8207 306.542 92.5948L331 92.5L328.484 218.024C327.106 286.825 270.814 341.81 202 341.573V341.573L196 268L192.5 233L199 197.5V197.5Z" fill="#5EB151"/>
<circle cx="15.8846" cy="15.8846" r="15.8846" transform="matrix(-1 0 0 1 98.1958 36.1014)" fill="white"/>
<path d="M202 102H98V238C98 295.438 144.562 342 202 342V342V102Z" fill="#ED3D3D"/>
</svg>
