<?xml version="1.0" encoding="UTF-8"?>
<svg id="_레이어_2" data-name="레이어 2" xmlns="http://www.w3.org/2000/svg" viewBox="0 0 238.48 179.88">
  <defs>
    <style>
      .cls-1 {
        fill: #221e1f;
      }

      .cls-1, .cls-2, .cls-3, .cls-4 {
        stroke-width: 0px;
      }

      .cls-2 {
        fill: #e2e3e4;
      }

      .cls-3 {
        fill: #ed1b23;
      }

      .cls-4 {
        fill: #fff;
      }
    </style>
  </defs>
  <g id="Layer_1" data-name="Layer 1">
    <g>
      <path class="cls-2" d="M238.48,136.82c-15.41-7.71-22.03-15.04-22.03-15.04C197.85,11.47,65.41-15.5,6.26,7.65c37.61,9.67,71.16,23.55,93.93,48.48-31.51-7.97-74.83-9.76-100.19-1.92,31.74,4.13,79.47,25.67,108.47,66.6,22.48,31.73,34.96,45.27,59.79,59.06,15.79-6.07,29.3-21.05,33.72-31.97,12.92.57,28.77-4.9,36.49-11.09Z"/>
      <path class="cls-3" d="M230.13,137.13c-61.18-12.38-65.07-76.74-165.5-76.74,56.25,30.9,56.87,84.39,104.43,111.67,0,0,5.39-5.65,10.57-18.04l8.87,2.1c1.63-10.97-.39-22-.39-22,6.14,2.47,24.49,8.66,42.03,3.01Z"/>
      <path class="cls-1" d="M117.6,60.9c38.21,11.91,67.55,31.96,85.25,49.45C188.45,38.41,99-6.36,22.86,7.27c0,0,59.32,8.45,94.74,53.63Z"/>
      <path class="cls-4" d="M158.18,135.6c-1.2-9.31-7.8-19.9-17.19-27.6,10.13,3.56,18.89,1.85,22.85-4.48,1.2,9.31,7.8,19.9,17.19,27.6-10.12-3.57-18.89-1.84-22.85,4.49Z"/>
    </g>
  </g>
</svg>