<?xml version="1.0" encoding="UTF-8"?>
<svg id="_레이어_2" data-name="레이어 2" xmlns="http://www.w3.org/2000/svg" viewBox="0 0 181.61 164.42">
  <defs>
    <style>
      .cls-1 {
        fill: #221e1f;
      }

      .cls-1, .cls-2, .cls-3, .cls-4, .cls-5, .cls-6 {
        stroke-width: 0px;
      }

      .cls-2 {
        fill: #e2e3e4;
      }

      .cls-3 {
        fill: #000;
      }

      .cls-4 {
        fill: #ed1b23;
      }

      .cls-5 {
        fill: #e0e0e0;
      }

      .cls-6 {
        fill: #fff;
      }
    </style>
  </defs>
  <g id="Layer_1" data-name="Layer 1">
    <g>
      <path class="cls-5" d="M163.99,95.14l17.62-29.33h-28.99c2.45-8.49,5.9-16.48,10.54-23.44-25.74-.82-53.16-7-72.35-26.27-19.18,19.27-46.61,25.45-72.35,26.27,4.64,6.96,8.09,14.95,10.54,23.44H0l17.62,29.33-11.84,23.12h27.16c-.64,5.84-1.62,11.38-2.87,16.44,0,0,35.18,6.53,60.73,29.71,25.55-23.18,60.73-29.71,60.73-29.71-1.25-5.06-2.23-10.6-2.87-16.44h27.16l-11.84-23.12Z"/>
      <path class="cls-3" d="M157.07,95.14l11.58-22.38h-27.89c1.56-8.62,4.02-16.65,7.58-23.13-18-.19-45.54-8.06-57.53-21.1-12,13.04-39.53,20.91-57.54,21.1,3.56,6.48,6.02,14.5,7.58,23.13H12.97l11.58,22.38-10.1,18.85h27.9c-.56,6.05-1.44,11.64-2.57,16.39,0,0,25.25,5.7,51.03,28.28,25.78-22.58,51.03-28.28,51.03-28.28-1.13-4.75-2.01-10.34-2.57-16.39h27.9l-10.1-18.85Z"/>
      <path class="cls-5" d="M90.8,131.57c-9.78,0-18.22,5.77-22.1,14.08l22.1,14.82,22.1-14.82c-3.89-8.31-12.32-14.08-22.1-14.08Z"/>
      <g>
        <path class="cls-6" d="M53.22,107.97l-10.94-12.56,9.39-10.38h-6.8l-7.45,8.09v-15.24h-8.89c1.68,1.42,3.11,3.3,3.11,5.83v24.26h5.78v-9.71l8.59,9.71h7.21Z"/>
        <path class="cls-6" d="M128.15,85.04v22.93h-5.78v-17.1c0-2.53-1.43-4.41-3.11-5.83h8.89Z"/>
        <polygon class="cls-6" points="152.43 103.14 155.2 107.97 132.45 107.97 144.14 89.87 133.23 89.87 133.23 85.04 154.7 85.04 142.03 103.14 152.43 103.14"/>
        <path class="cls-6" d="M64.16,101.35v-11.48h4.06l2.77-4.83h-6.83v-7.16l-5.78,3.31v3.85h-4.26v4.83h4.26v11.8c0,3.48,2.82,6.3,6.3,6.3h4.58v-4.83h-3.32c-.99,0-1.78-.8-1.78-1.78"/>
        <path class="cls-6" d="M110.45,85.04l-5.74,12.08-6.67-12.68-6.67,12.68-5.73-12.08h-9c2.04,1.15,4.36,3.08,5.76,5.92,1.4,2.84,8.69,17.57,8.69,17.57l6.95-13.28,6.95,13.28,11.67-23.48h-6.21Z"/>
      </g>
      <g>
        <path class="cls-2" d="M131.16,59.5c-6.7-3.35-9.58-6.54-9.58-6.54C113.49,4.99,55.89-6.74,30.17,3.33c16.36,4.2,30.95,10.24,40.85,21.09-13.7-3.47-32.54-4.24-43.57-.83,13.8,1.8,34.56,11.16,47.17,28.96,9.78,13.8,15.2,19.69,26,25.69,6.87-2.64,12.74-9.15,14.67-13.9,5.62.25,12.51-2.13,15.87-4.82Z"/>
        <path class="cls-4" d="M127.53,59.64c-26.61-5.38-28.3-33.37-71.98-33.37,24.46,13.44,24.73,36.7,45.42,48.57,0,0,2.34-2.46,4.59-7.84l3.86.91c.71-4.77-.17-9.57-.17-9.57,2.67,1.07,10.65,3.77,18.28,1.31Z"/>
        <path class="cls-1" d="M78.59,26.49c16.62,5.18,29.38,13.9,37.07,21.5C109.4,16.7,70.5-2.77,37.38,3.16c0,0,25.8,3.68,41.2,23.32Z"/>
        <path class="cls-6" d="M96.24,58.97c-.52-4.05-3.39-8.65-7.48-12,4.4,1.55,8.22.8,9.94-1.95.52,4.05,3.39,8.65,7.48,12-4.4-1.55-8.22-.8-9.94,1.95Z"/>
      </g>
      <g>
        <path class="cls-2" d="M116.7,114.63c-1.23,0-2.23.47-2.87,1.28l-.31-1.07h-3.07c.64.54,1.18,1.25,1.18,2.22v6.51h2.2v-5.25c.25-.81,1.27-1.8,2.29-1.8,1.16,0,1.73,1.05,1.73,2.31v4.73h2.2v-4.98c0-2.76-1.76-3.95-3.35-3.95"/>
        <path class="cls-2" d="M78.66,119.55c0,1.44-.61,2.37-1.9,2.37s-1.9-.93-1.9-2.37v-4.72h-3.38c.64.54,1.18,1.26,1.18,2.22v2.88h.01c0,3.03,2.6,3.85,4.08,3.85s4.09-.82,4.09-3.85v-5.1h-2.19v4.72Z"/>
        <path class="cls-2" d="M95.35,114.84l-2.18,4.66-2.54-4.96-2.54,4.96-2.18-4.67h-3.42c.78.44,1.66,1.17,2.19,2.25.53,1.08,3.31,6.82,3.31,6.82l2.64-5.25,2.64,5.25,4.44-9.07h-2.37Z"/>
        <path class="cls-2" d="M103.94,114.59c-2.69,0-4.83,1.91-4.83,4.62s2.14,4.62,4.83,4.62,4.83-1.91,4.83-4.62-2.14-4.62-4.83-4.62ZM103.94,122.05c-1.39,0-2.51-1.19-2.51-2.84s1.12-2.84,2.51-2.84,2.51,1.2,2.51,2.84-1.12,2.84-2.51,2.84Z"/>
        <path class="cls-2" d="M65.28,122.05c-1.36,0-2.54-.95-2.62-1.62l-1.11,2.29c.74.64,2.1,1.07,3.8,1.07,2.64,0,4.21-1.15,4.21-2.74-.02-1.3-.79-2.11-2.96-2.69-1.53-.4-2.42-.55-2.42-1.11,0-.62.77-.95,1.75-.95.83,0,1.61.2,2.32.67l.86-1.54c-.52-.43-2.11-.8-3.15-.8-2.55,0-4.12,1.27-4.12,2.82-.02,1.03.71,1.9,3.06,2.5,1.48.38,2.31.56,2.31,1.15,0,.65-.79.95-1.93.95"/>
      </g>
      <g>
        <g>
          <path class="cls-4" d="M102.94,145.72c-.39-.35-.56-1.26-.34-1.98h0s0,0,0,0h0c-.32.4-.88.65-1.26.64-.31,0-2.32-.04-2.32-.04-.33,0-.61.26-.61.6,0,.33.26.61.59.61,0,0,1.78.03,2.06.03.33,0,.77-.19.99-.46l.12-.31c-.08.21-.16.43-.24.65-.12.56.02.88.45,1.25.46.4,1.15,1,1.15,1h0c.23.2.58.17.78-.06.2-.23.18-.58-.06-.78,0,0-1.1-.95-1.31-1.14Z"/>
          <path class="cls-4" d="M104.35,142.45c-.35-.39-.41-1.32-.12-2.01h0s0,0,0,0h0c-.36.36-.95.54-1.33.49-.31-.04-2.3-.3-2.3-.3-.33-.04-.63.19-.68.52-.04.33.19.63.52.68,0,0,1.76.23,2.04.26.33.04.79-.1,1.04-.34l.16-.29c-.1.2-.2.4-.3.6-.19.53-.09.89.3,1.3.41.45,1.03,1.12,1.03,1.12h0c.21.23.56.24.78.03.22-.21.24-.56.03-.78,0,0-.99-1.07-1.18-1.28Z"/>
          <path class="cls-4" d="M100.06,154.46c-.17.48-.62.9-.98,1.02-.3.1-2.2.74-2.2.74-.32.11-.49.45-.38.77.11.32.45.49.77.38,0,0,1.69-.56,1.95-.66.31-.11.75-.46.78-.76l.06-1.48h0s0,0,0,0Z"/>
          <path class="cls-4" d="M107.14,140.75s-.86-1.17-1.02-1.41c-.3-.43-.26-1.36.11-2.01h0s0,0,0,0h0c-.4.32-1.01.43-1.37.34-.3-.08-2.25-.55-2.25-.55-.32-.08-.65.12-.73.44-.08.32.12.65.44.73,0,0,1.73.43,2,.49.33.07.8-.01,1.07-.22l.19-.27c-.12.18-.24.37-.36.55-.24.48-.19.88.15,1.34.36.49.9,1.23.9,1.23.18.25.53.3.78.12.25-.18.3-.53.12-.78Z"/>
          <path class="cls-4" d="M102.82,153.47s-1.29-.68-1.54-.82c-.46-.25-.83-1.1-.78-1.85h0s0,0,0,0h0s0,0,0,0c-.22.46-.72.83-1.09.9-.31.06-2.27.49-2.27.49-.33.07-.53.39-.46.72s.39.53.72.46h0s1.74-.37,2.01-.43c.33-.08.71-.36.86-.67l.05-.33c-.03.22-.06.45-.09.67.02.56.21.87.72,1.13.54.29,1.35.71,1.35.71.27.14.61.04.75-.23.14-.27.04-.61-.23-.75Z"/>
          <path class="cls-4" d="M101.91,149.14c-.43-.31-.7-1.19-.57-1.93h0s0,0,0,0h0c-.27.44-.81.74-1.18.78-.31.03-2.31.23-2.31.23-.33.03-.57.33-.54.66.03.33.33.57.66.54h0s1.77-.17,2.05-.2c.33-.04.75-.28.93-.57l.09-.32c-.06.22-.11.44-.16.66-.06.53.12.88.59,1.19.5.34,1.26.86,1.26.86h0c.25.17.6.11.77-.14.17-.25.11-.6-.14-.77,0,0-1.2-.82-1.44-.98Z"/>
        </g>
        <g>
          <path class="cls-4" d="M78.66,145.72c.39-.35.56-1.26.35-1.98h0s0,0,0,0h0c.32.4.88.65,1.26.64.31,0,2.32-.04,2.32-.04.33,0,.61.26.61.6,0,.33-.26.61-.59.61,0,0-1.78.03-2.06.03-.33,0-.77-.19-.99-.46l-.12-.31c.08.21.16.43.24.65.12.56-.02.88-.45,1.25-.46.4-1.15,1-1.15,1h0c-.23.2-.58.17-.78-.06-.2-.23-.18-.58.06-.78,0,0,1.1-.95,1.31-1.14Z"/>
          <path class="cls-4" d="M77.26,142.45c.35-.39.41-1.32.12-2.01h0s0,0,0,0h0c.36.36.95.54,1.33.49.31-.04,2.3-.3,2.3-.3.33-.04.63.19.68.52.04.33-.19.63-.52.68,0,0-1.76.23-2.04.26-.33.04-.79-.1-1.04-.34l-.16-.29c.1.2.2.4.31.6.19.53.09.89-.3,1.3-.41.45-1.03,1.12-1.03,1.12h0c-.21.23-.56.24-.78.03-.22-.21-.24-.56-.03-.78,0,0,.99-1.07,1.18-1.28Z"/>
          <path class="cls-4" d="M81.54,154.46c.17.48.62.9.98,1.02.3.1,2.2.74,2.2.74.32.11.49.45.38.77-.11.32-.45.49-.77.38,0,0-1.69-.56-1.95-.66-.31-.11-.75-.46-.78-.76l-.06-1.48h0s0,0,0,0Z"/>
          <path class="cls-4" d="M74.47,140.75s.86-1.17,1.02-1.41c.3-.43.26-1.36-.11-2.01h0s0,0,0,0h0c.4.32,1.01.43,1.37.34.3-.08,2.25-.55,2.25-.55.32-.08.65.12.73.44.08.32-.12.65-.44.73,0,0-1.73.43-2,.49-.33.07-.8-.01-1.07-.22l-.19-.27c.12.18.24.37.36.55.24.48.19.88-.15,1.34-.36.49-.9,1.23-.9,1.23-.18.25-.53.3-.78.12-.25-.18-.3-.53-.12-.78Z"/>
          <path class="cls-4" d="M78.79,153.47s1.29-.68,1.54-.82c.46-.25.83-1.1.78-1.85h0s0,0,0,0h0s0,0,0,0c.22.46.72.83,1.09.9.3.06,2.27.49,2.27.49.33.07.54.39.46.72-.07.33-.39.53-.72.46h0s-1.74-.37-2.01-.43c-.33-.08-.71-.36-.86-.67l-.05-.33c.03.22.06.45.09.67-.02.56-.21.87-.72,1.13-.54.29-1.35.71-1.35.71-.27.14-.61.04-.75-.23-.14-.27-.04-.61.23-.75Z"/>
          <path class="cls-4" d="M79.69,149.14c.43-.31.7-1.19.57-1.93h0s0,0,0,0h0c.27.44.81.74,1.18.78.31.03,2.31.23,2.31.23.33.03.57.33.54.66-.03.33-.33.57-.66.54h0s-1.77-.17-2.05-.2c-.33-.04-.75-.28-.93-.57l-.09-.32c.06.22.11.44.16.66.06.53-.12.88-.59,1.19-.5.34-1.26.86-1.26.86h0c-.25.17-.6.11-.77-.14-.17-.25-.11-.6.15-.77,0,0,1.2-.82,1.44-.98Z"/>
        </g>
      </g>
    </g>
  </g>
</svg>